PathFileType	4	(X/Y/Z)	..\data\2015007\dynamic\2015007_C5_03.trc
DataRate	CameraRate	NumFrames	NumMarkers	Units	OrigDataRate	OrigDataStartFrame	OrigNumFrames
100.000000	100.000000	4	52	mm	100.000000	121	139
Frame#	Time	L_IAS			L_IPS			R_IPS			R_IAS			L_FTC			L_FLE			L_FME			L_FAX			L_TTC			L_FAL			L_TAM			L_FCC			L_FM1			L_FM2			L_FM5			R_FTC			R_FLE			R_FME			R_FAX			R_TTC			R_FAL			R_TAM			R_FCC			R_FM1			R_FM2			R_FM5			CV7			TV10			SXS			SJN			L_SIA			L_SRS			L_SAA			L_SAE			L_HLE			L_HME			L_UOA			L_RSP			L_UHE			L_HM2			L_HM5			R_SIA			R_SRS			R_SAA			R_SAE			R_HLE			R_HME			R_UOA			R_RSP			R_UHE			R_HM2			R_HM5			
		X1	Y1	Z1	X2	Y2	Z2	X3	Y3	Z3	X4	Y4	Z4	X5	Y5	Z5	X6	Y6	Z6	X7	Y7	Z7	X8	Y8	Z8	X9	Y9	Z9	X10	Y10	Z10	X11	Y11	Z11	X12	Y12	Z12	X13	Y13	Z13	X14	Y14	Z14	X15	Y15	Z15	X16	Y16	Z16	X17	Y17	Z17	X18	Y18	Z18	X19	Y19	Z19	X20	Y20	Z20	X21	Y21	Z21	X22	Y22	Z22	X23	Y23	Z23	X24	Y24	Z24	X25	Y25	Z25	X26	Y26	Z26	X27	Y27	Z27	X28	Y28	Z28	X29	Y29	Z29	X30	Y30	Z30	X31	Y31	Z31	X32	Y32	Z32	X33	Y33	Z33	X34	Y34	Z34	X35	Y35	Z35	X36	Y36	Z36	X37	Y37	Z37	X38	Y38	Z38	X39	Y39	Z39	X40	Y40	Z40	X41	Y41	Z41	X42	Y42	Z42	X43	Y43	Z43	X44	Y44	Z44	X45	Y45	Z45	X46	Y46	Z46	X47	Y47	Z47	X48	Y48	Z48	X49	Y49	Z49	X50	Y50	Z50	X51	Y51	Z51	X52	Y52	Z52	

122	1.21	1674.548461914063	909.581726074219	-360.9449157714844	1462.265747070313	915.722351074219	-279.3448181152344	1471.264526367188	925.746276855469	-173.6748199462891	1687.5537109375	909.0683593750002	-112.3777847290039	1604.700927734375	798.3823242187502	-415.5304565429689	1778.036499023438	467.6741943359376	-367.7470397949219	1792.531616210938	452.4480590820314	-247.0781402587891	1765.796752929688	410.5898742675782	-375.5088806152344	1818.970581054688	399.693817138672	-326.9126892089844	1719.86181640625	90.58152770996095	-349.5132446289063	1749.12451171875	91.81062316894533	-271.2124633789063	1681.466918945313	40.50531005859376	-293.5522155761719	1847.44775390625	35.1595802307129	-298.8477172851563	1842.506103515625	48.12683105468751	-343.5566406250001	1794.132690429688	29.331205368042	-380.7497863769532	1588.623657226563	810.6457519531252	-46.46143341064454	1550.414916992188	438.5574645996095	-119.1074295043946	1533.84423828125	428.4841308593751	-246.8067016601563	1530.58251953125	385.4903259277345	-115.0574340820313	1577.160522460938	371.8710021972657	-164.5293731689453	1461.020141601563	64.86119842529298	-158.7348175048828	1486.653686523438	80.2443084716797	-241.4089050292969	1413.760620117188	20.62430572509766	-211.096664428711	1591.289916992188	16.49435043334961	-229.0586242675782	1588.758544921875	28.19988059997559	-183.2010650634766	1537.130126953125	9.401287078857424	-130.3837585449219	1574.333740234375	1409.228149414063	-221.5116729736329	1470.938110351563	1171.58837890625	-230.9055633544922	1732.163818359375	1085.987670898438	-251.0170135498047	1683.177612304688	1326.3798828125	-236.8304138183594	1465.620971679688	1218.066284179688	-314.3380432128907	1509.953857421875	1346.133422851563	-324.5305175781251	1547.47607421875	1349.41455078125	-389.7627868652345	1592.956665039063	1359.948120117188	-407.6595764160157	1504.501220703125	1063.49951171875	-479.0238037109376	1481.357788085938	1061.212036132813	-404.1648559570314	1471.974731445313	1047.144653320313	-452.3110351562501	1552.535888671875	827.255065917969	-460.8500061035157	1484.949951171875	836.634704589844	-501.701385498047	1563.252075195313	761.6623535156251	-471.5659484863282	1472.617309570313	776.3133544921877	-502.2948303222657	1473.677612304688	1213.064697265625	-148.5223541259766	1519.852416992188	1335.604125976563	-147.3393707275391	1575.355712890625	1339.308959960938	-78.70958709716798	1623.520629882813	1343.03125	-66.65101623535158	1634.56689453125	1018.742553710938	14.98064708709717	1599.0869140625	1000.798706054688	-45.79875564575196	1621.0302734375	981.3410644531252	-1.514536142349244	1801.191040039063	859.0025024414065	-22.64224815368653	1762.896728515625	836.4605712890627	20.89246368408203	1861.891967773438	804.6022949218752	-21.45072746276856	1798.079711914063	777.6893310546877	26.30395889282227	
123	1.22	1690.291259765625	906.536315917969	-360.8620300292969	1477.215576171875	912.9766845703127	-280.3840637207032	1485.755859375	923.1480102539065	-174.5431365966797	1702.087768554688	906.0263671875002	-112.1547546386719	1620.944091796875	796.2297363281252	-416.0217285156251	1794.894287109375	466.1860961914064	-367.4833374023438	1805.72802734375	449.9884338378907	-246.7508697509766	1785.647216796875	408.1524963378907	-375.9020385742188	1838.559936523438	400.4058837890626	-325.8800354003907	1763.656494140625	85.74183654785158	-350.3840332031251	1791.623046875	89.12499237060548	-271.6798095703126	1728.428833007813	33.03129959106446	-294.8619384765626	1894.187133789063	40.38988876342774	-297.3923034667969	1889.157836914063	52.72324371337892	-342.2716064453126	1843.035034179688	30.30009078979493	-380.1618041992188	1602.042358398438	809.2620239257815	-46.48724746704102	1555.599487304688	438.4342346191407	-119.1824417114258	1539.080444335938	428.8405761718751	-246.9513854980469	1534.9658203125	385.7649536132814	-115.1893539428711	1581.424926757813	371.3221435546876	-164.5719604492188	1461.508422851563	65.6000213623047	-159.5525054931641	1487.83642578125	80.82942199707033	-242.1398010253907	1414.242553710938	21.79635047912598	-212.2406921386719	1591.813232421875	16.51228141784668	-229.1763610839844	1589.030639648438	28.2241497039795	-183.2497711181641	1537.04833984375	9.677295684814455	-130.8003845214844	1589.424682617188	1407.0048828125	-221.6102905273438	1485.847534179688	1169.408203125	-230.7855529785157	1747.947509765625	1082.323120117188	-251.7020263671876	1697.998779296875	1324.13818359375	-237.2397460937501	1480.38671875	1215.801025390625	-314.1666259765626	1524.652465820313	1343.886108398438	-324.4827270507813	1562.086547851563	1347.133056640625	-389.8295898437501	1607.586669921875	1357.570068359375	-407.8856201171876	1515.87451171875	1061.99462890625	-477.9400024414064	1493.325805664063	1059.984130859375	-403.011932373047	1483.404174804688	1046.234252929688	-450.9167480468751	1560.154174804688	825.122497558594	-461.2141418457032	1492.071411132813	835.6947021484377	-501.0024414062501	1569.435546875	759.2748413085939	-472.3514404296876	1478.699340820313	775.722351074219	-501.8088989257814	1488.726318359375	1211.038208007813	-148.2338409423828	1534.996948242188	1333.556030273438	-147.1938629150391	1590.909790039063	1337.277465820313	-78.70475006103517	1639.291015625	1340.955688476563	-66.93946838378908	1653.106689453125	1016.712341308594	14.98719692230225	1617.462646484375	998.179382324219	-45.5368766784668	1640.34912109375	979.0561523437502	-1.62602984905243	1823.41845703125	861.463317871094	-25.64129638671876	1786.297607421875	837.7076416015627	18.09934806823731	1885.575561523438	808.9443359375002	-25.417631149292	1823.192626953125	779.6757812500002	22.622802734375	
124	1.23	1706.205444335938	903.1971435546877	-360.8361206054688	1492.298828125	909.9558715820315	-281.5266113281251	1500.328491210938	920.236511230469	-175.5845031738282	1716.650512695313	902.8952636718752	-111.825065612793	1637.169067382813	793.7854614257815	-416.5654907226564	1810.961547851563	464.1096801757814	-367.3399047851563	1818.152221679688	446.7099914550782	-246.5513305664063	1804.558959960938	405.4364318847657	-376.3486022949219	1857.28515625	400.6634521484376	-325.0175781250001	1806.164428710938	82.04646301269533	-350.8031921386719	1832.8681640625	87.49404144287111	-271.8250732421876	1774.246337890625	26.90365028381348	-295.6091003417969	1939.087280273438	46.55455780029298	-295.6255798339844	1933.988037109375	58.18886947631837	-340.6617431640626	1890.228515625	32.3076515197754	-379.1347351074219	1615.453125	807.7377929687502	-46.60636138916016	1561.452514648438	438.2863769531251	-119.3205947875977	1545.08642578125	429.1790771484376	-247.1908111572266	1539.934204101563	386.0446777343751	-115.391716003418	1586.267578125	370.7322692871094	-164.6822662353516	1462.09033203125	66.45595550537111	-160.315658569336	1489.060424804688	81.53511810302736	-242.8132019042969	1414.685302734375	23.14139366149903	-213.2565917968751	1592.41748046875	16.57511901855469	-229.2535095214844	1589.375732421875	28.29651832580567	-183.274398803711	1537.042846679688	9.9487361907959	-131.2082672119141	1604.576293945313	1404.536743164063	-221.7369384765626	1500.794921875	1167.003540039063	-230.7935180664063	1763.7333984375	1078.345336914063	-252.3790893554688	1712.903076171875	1321.66943359375	-237.6600646972657	1495.258056640625	1213.329467773438	-314.1547851562501	1539.440673828125	1341.422973632813	-324.5367736816407	1576.8330078125	1344.650146484375	-389.9445800781251	1622.372802734375	1354.994384765625	-408.1444396972657	1527.417236328125	1060.322143554688	-476.9599914550782	1505.638916015625	1058.462280273438	-401.8816528320314	1495.109008789063	1045.07275390625	-449.5721435546876	1568.06201171875	822.8400878906252	-461.5794982910157	1499.573974609375	834.6092529296877	-500.3392333984376	1575.983764648438	756.7840576171876	-473.1356811523439	1485.218139648438	774.987243652344	-501.352020263672	1503.75634765625	1208.787841796875	-148.0708770751953	1550.126586914063	1331.28564453125	-147.1226959228516	1606.433715820313	1335.015380859375	-78.75390625000001	1655.044067382813	1338.623291015625	-67.26201629638673	1671.94921875	1014.508911132813	14.86727333068848	1636.012451171875	995.3679809570315	-45.52400207519532	1659.587768554688	976.5845336914065	-1.932003498077393	1845.31787109375	863.4736328125002	-28.49827003479005	1809.313110351563	838.6511840820315	15.44333744049073	1908.666870117188	812.6317138671877	-29.1484661102295	1847.723388671875	781.359069824219	19.192138671875	
125	1.24	1722.2900390625	899.6883544921877	-360.8734130859376	1507.5537109375	906.7456665039065	-282.7872619628907	1515.012329101563	917.1037597656252	-176.822738647461	1731.275634765625	899.7869873046877	-111.4076766967774	1653.392944335938	791.109802246094	-417.1579895019532	1826.405639648438	461.5534057617189	-367.2836303710938	1830.0966796875	442.8176574707032	-246.4262237548829	1822.627685546875	402.5180664062501	-376.7943115234376	1875.274536132813	400.5090637207032	-324.3005065917969	1846.836791992188	79.39088439941408	-350.7553405761719	1872.365600585938	86.78545379638673	-271.6361694335938	1818.252685546875	22.06201362609864	-295.7649841308594	1981.657104492188	53.27400588989259	-293.6376037597657	1976.480102539063	64.1697235107422	-338.8049621582032	1935.086181640625	35.0610580444336	-377.7232360839844	1628.896606445313	806.1160278320315	-46.85180664062501	1568.011108398438	438.0989685058595	-119.5191650390625	1551.908569335938	429.4661560058595	-247.519027709961	1545.523803710938	386.317596435547	-115.6581497192383	1591.729370117188	370.0903930664063	-164.8585662841797	1462.775390625	67.45528411865236	-160.987777709961	1490.298706054688	82.38547515869142	-243.3957672119141	1415.0625	24.70040512084962	-214.0871124267579	1593.085205078125	16.66724395751953	-229.2841186523438	1589.790893554688	28.40897369384766	-183.2696380615235	1537.114379882813	10.19224357604981	-131.5887298583985	1619.776611328125	1401.870727539063	-221.9139404296876	1515.792846679688	1164.408813476563	-230.9308624267579	1779.486694335938	1074.211547851563	-253.0221099853516	1727.902587890625	1319.027099609375	-238.1031494140626	1510.242431640625	1210.687255859375	-314.3003234863282	1554.3251953125	1338.782836914063	-324.6994628906251	1591.7099609375	1342.00537109375	-390.1197509765626	1637.300415039063	1352.263793945313	-408.4508666992189	1539.130615234375	1058.529052734375	-476.1223754882814	1518.30224609375	1056.686767578125	-400.8078918457032	1507.114868164063	1043.697631835938	-448.3139953613282	1576.284912109375	820.441345214844	-461.9372863769532	1507.506591796875	833.4091796875002	-499.7417602539064	1582.9189453125	754.2184448242189	-473.8817749023439	1492.204711914063	774.1340942382815	-500.9341735839845	1518.790405273438	1206.344482421875	-148.046127319336	1565.252685546875	1328.82861328125	-147.1468200683594	1621.928588867188	1332.560791015625	-78.87326812744142	1670.763793945313	1336.0810546875	-67.6233367919922	1691.074462890625	1012.192749023438	14.61101722717286	1654.707153320313	992.4268798828127	-45.76435470581055	1678.687622070313	973.957946777344	-2.43425989151001	1866.891967773438	865.0380859375002	-31.20259284973145	1831.921142578125	839.2881469726565	12.93729305267334	1931.170043945313	815.6395263671877	-32.63848876953126	1871.652221679688	782.7180786132815	16.02723121643067	
